<svg width="20" height="20" viewBox="0 0 20 20" fill="none" xmlns="http://www.w3.org/2000/svg">
<path fill-rule="evenodd" clip-rule="evenodd" d="M10 2.50004C5.85787 2.50004 2.50001 5.8579 2.50001 10C2.50001 14.1422 5.85787 17.5 10 17.5C14.1421 17.5 17.5 14.1422 17.5 10C17.5 5.8579 14.1421 2.50004 10 2.50004ZM0.833344 10C0.833344 4.93743 4.9374 0.833374 10 0.833374C15.0626 0.833374 19.1667 4.93743 19.1667 10C19.1667 15.0626 15.0626 19.1667 10 19.1667C4.9374 19.1667 0.833344 15.0626 0.833344 10Z" fill="white"/>
<path fill-rule="evenodd" clip-rule="evenodd" d="M9.41073 6.07745C9.73617 5.75201 10.2638 5.75201 10.5892 6.07745L13.9226 9.41079C14.248 9.73622 14.248 10.2639 13.9226 10.5893L10.5892 13.9226C10.2638 14.2481 9.73617 14.2481 9.41073 13.9226C9.0853 13.5972 9.0853 13.0696 9.41073 12.7441L12.1548 10L9.41073 7.25596C9.0853 6.93053 9.0853 6.40289 9.41073 6.07745Z" fill="white"/>
<path fill-rule="evenodd" clip-rule="evenodd" d="M5.83334 9.99996C5.83334 9.53972 6.20644 9.16663 6.66668 9.16663H13.3333C13.7936 9.16663 14.1667 9.53972 14.1667 9.99996C14.1667 10.4602 13.7936 10.8333 13.3333 10.8333H6.66668C6.20644 10.8333 5.83334 10.4602 5.83334 9.99996Z" fill="white"/>
</svg>
