<svg width="100" height="100" viewBox="0 0 100 100" fill="none" xmlns="http://www.w3.org/2000/svg">
<rect width="100" height="100" fill="white"/>
<path fill-rule="evenodd" clip-rule="evenodd" d="M77.9459 22.0534C79.5731 23.6806 79.5731 26.3188 77.9459 27.946L27.946 77.9459C26.3188 79.5731 23.6806 79.5731 22.0534 77.9459C20.4262 76.3188 20.4262 73.6806 22.0534 72.0534L72.0534 22.0534C73.6806 20.4262 76.3188 20.4262 77.9459 22.0534Z" fill="#7929E8"/>
<path fill-rule="evenodd" clip-rule="evenodd" d="M22.0534 22.0534C23.6806 20.4262 26.3188 20.4262 27.946 22.0534L77.9459 72.0534C79.5731 73.6806 79.5731 76.3188 77.9459 77.9459C76.3188 79.5731 73.6806 79.5731 72.0534 77.9459L22.0534 27.946C20.4262 26.3188 20.4262 23.6806 22.0534 22.0534Z" fill="#7929E8"/>
</svg>
